<svg preserveAspectRatio="none" width="100%" height="100%" overflow="visible" style="display: block;" viewBox="0 0 9.99985 8.3329" fill="none" xmlns="http://www.w3.org/2000/svg">
<g id="Group">
<path id="Vector" d="M0.926206 5.23659C0.780221 5.53315 0.645135 5.8053 0.5117 6.07809C0.463478 6.17673 0.393128 6.24314 0.276538 6.24835C0.089267 6.25681 -0.041195 6.09274 0.0119806 5.915C0.0212286 5.88407 0.0354308 5.85413 0.049633 5.82515C0.268281 5.37885 0.487259 4.93287 0.706898 4.48721C0.807304 4.28375 0.932812 4.23915 1.13693 4.33616C1.60031 4.55655 2.06337 4.77759 2.52511 5.00058C2.65722 5.06438 2.71205 5.16334 2.69421 5.28281C2.67704 5.3974 2.59381 5.49148 2.47689 5.49994C2.41149 5.50483 2.33784 5.48562 2.27707 5.45795C2.04917 5.35443 1.82491 5.2431 1.59899 5.13502C1.55242 5.11289 1.50552 5.0914 1.4322 5.05722C1.45697 5.14511 1.47051 5.20729 1.49198 5.26686C2.0135 6.71353 3.0387 7.57978 4.58047 7.78161C6.43534 8.02446 8.16999 6.80631 8.60134 5.00709C8.60993 4.9716 8.61653 4.93547 8.62677 4.90031C8.66938 4.75252 8.7929 4.66983 8.93129 4.69523C9.08058 4.7229 9.17636 4.84399 9.13871 5.00188C9.08091 5.24212 9.01882 5.48464 8.92601 5.71317C8.24232 7.39455 6.56217 8.43723 4.73504 8.3246C2.99742 8.2175 1.48306 7.03223 0.976739 5.38373C0.964189 5.34271 0.948996 5.30202 0.926536 5.23626L0.926206 5.23659Z" fill="var(--fill-0, black)"/>
<path id="Vector_2" d="M9.09049 3.10239C9.23681 2.80518 9.36396 2.53206 9.50698 2.2674C9.54562 2.1961 9.62357 2.13035 9.6992 2.09812C9.79003 2.05938 9.90134 2.08933 9.94923 2.1782C9.98952 2.25307 10.0097 2.35529 9.99514 2.43733C9.97796 2.53368 9.91356 2.62223 9.86864 2.71338C9.68368 3.09002 9.49905 3.46666 9.31343 3.84298C9.20906 4.0549 9.0862 4.09885 8.87547 3.99826C8.41605 3.77917 7.95729 3.55944 7.49852 3.3384C7.36542 3.27427 7.30497 3.17824 7.32182 3.0604C7.33932 2.938 7.41166 2.85336 7.53386 2.83806C7.6019 2.82959 7.68117 2.85108 7.74524 2.88038C8.0174 3.00473 8.28592 3.1369 8.58152 3.2785C8.56666 3.21535 8.55873 3.17401 8.54717 3.13429C8.13828 1.74882 6.89608 0.713625 5.44581 0.548905C3.55262 0.334053 1.83317 1.53853 1.40148 3.38072C1.38959 3.4315 1.37506 3.48457 1.34831 3.52851C1.28522 3.63268 1.14849 3.67207 1.03355 3.62715C0.915307 3.58125 0.841323 3.46666 0.879966 3.32896C0.961216 3.04021 1.02992 2.7417 1.15873 2.47313C1.84473 1.04111 2.99279 0.204816 4.58575 0.0257729C6.57868 -0.198194 8.46097 1.05967 9.0426 2.95785C9.05416 2.99594 9.0677 3.03338 9.09049 3.10239V3.10239Z" fill="var(--fill-0, black)"/>
</g>
</svg>
