<svg preserveAspectRatio="none" width="100%" height="100%" overflow="visible" style="display: block;" viewBox="0 0 102 31" fill="none" xmlns="http://www.w3.org/2000/svg">
<g id="Frame 24">
<path id="Vector" d="M11.4626 29.4506C11.7634 29.6453 12.1342 29.8631 12.5627 30.1018C12.983 30.3342 13.5124 30.5561 14.0563 30.7299C14.5939 30.9016 15.1914 31 15.7002 31H15.7126C16.2296 31 16.8621 30.9518 17.5378 30.866C18.2217 30.7781 18.9263 30.6022 19.5772 30.3551C20.2241 30.1102 20.8957 29.8024 21.5199 29.4674C22.1503 29.1282 22.622 28.8665 22.9228 28.6843C23.2318 28.498 23.6335 28.2488 24.1114 27.9431C24.5976 27.6333 25.3063 27.091 26.1633 26.3749C27.0326 25.6484 27.8958 24.7753 28.728 23.7766C29.5459 22.7946 30.1948 21.9152 30.6006 21.2348C31.0065 20.5564 31.3732 19.8006 31.6636 19.051C31.952 18.3077 32.1436 17.5477 32.2054 16.9091C32.2672 16.2642 32.2569 15.5063 32.1766 14.7148C32.0942 13.9192 31.9397 13.1759 31.7254 12.5625C31.5112 11.9511 31.2825 11.4172 31.0621 11.0215C31.0065 10.9231 30.9426 10.8142 30.8705 10.7011C30.8437 10.6446 30.8211 10.6006 30.7984 10.5609C30.5986 10.2133 30.3205 9.8092 29.9908 9.39254C29.6612 8.97379 29.1771 8.47967 28.5859 7.96251C28.2645 7.67986 27.8875 7.37836 27.4652 7.06849C27.2448 6.87377 27.0326 6.68742 26.8348 6.51364C26.7833 6.46967 26.7318 6.42571 26.6783 6.38174L26.6123 6.3273C26.5361 6.23308 26.4743 6.15352 26.4166 6.08233C26.1509 5.75361 25.7348 5.24274 25.1868 4.59577C24.6512 3.96137 23.9631 3.2474 23.1391 2.4769C22.3707 1.75456 21.5652 1.12434 20.8092 0.651155C20.1211 0.221937 19.1941 0 18.6873 0C18.679 0 18.6708 0 18.6626 0C18.1434 0.00837498 17.6779 0.00418749 16.961 0.0586249C16.207 0.115156 15.3314 0.299406 14.425 0.590436C13.5042 0.885654 12.6142 1.27718 11.8499 1.72106C11.0651 2.1775 10.4367 2.61928 10.0309 3.00034C9.61065 3.39606 9.09564 3.92787 8.53942 4.53924C7.96878 5.16527 7.45171 5.86039 7.03764 6.54296C6.63798 7.20458 6.33103 7.78664 6.17035 8.18236C6.02202 8.54667 5.83044 9.10151 5.58735 9.8762C5.45551 10.2929 5.34014 10.7765 5.24332 11.3125L5.2392 11.3293C5.21242 11.3879 5.18564 11.4444 5.16298 11.4968C4.89929 12.1102 4.61088 12.8493 4.33895 13.557C4.06291 14.2773 3.84866 14.8928 3.73536 15.2906C3.63441 15.6361 3.53553 16.0109 3.43665 16.4024C3.34806 16.7583 3.28214 17.3299 3.2533 18.0125C3.22652 18.6616 3.26772 19.3609 3.3666 19.9806C3.45725 20.5501 3.63235 21.1782 3.85484 21.7519C4.04642 22.2523 4.29569 22.7506 4.5429 23.1212C4.77157 23.4646 5.05586 23.8645 5.36899 24.2728C5.67387 24.6727 6.04675 25.06 6.34339 25.282C6.6524 25.5144 7.10562 25.8431 7.58149 26.1907C8.11299 26.5759 8.73925 27.0051 9.44379 27.4679C10.1566 27.9369 11.063 28.4791 12.1404 29.0842C13.1849 29.6684 14.2046 30.0159 14.8 29.9887C15.3026 29.9657 15.8156 29.9343 16.31 29.905L16.5819 29.8882C17.1505 29.8547 17.8179 29.7207 18.4607 29.5134C19.1302 29.2978 19.7523 29.0423 20.2612 28.7702L20.5805 28.6006C20.9987 28.3786 21.5178 28.1043 22.142 27.761C22.4613 27.6479 22.7745 27.5223 23.0773 27.3862C23.7324 27.091 24.3071 26.7644 24.7439 26.444C25.1744 26.1279 25.6029 25.7259 25.9511 25.3155C26.2539 24.9554 26.6206 24.4466 27.0099 23.8457C27.2098 23.6133 27.4055 23.3955 27.595 23.1903C27.8504 22.9202 28.2151 22.4847 28.6477 21.9299C29.0885 21.3667 29.4717 20.77 29.7581 20.2026C30.0341 19.6603 30.2793 19.0007 30.4647 18.2931C30.6377 17.6398 30.7242 16.9635 30.7119 16.3898V16.3773L30.716 16.3668C30.9879 15.5482 31.1548 14.8656 31.2145 14.3359C31.2784 13.7748 31.2949 13.1822 31.264 12.6274L31.2372 12.1626L31.4205 12.6818C31.6348 13.2995 31.7728 13.959 31.8552 14.7588C31.9376 15.5607 31.9458 16.237 31.884 16.8882C31.8202 17.5414 31.6595 18.1758 31.3629 18.9442C31.0683 19.7063 30.7387 20.3847 30.3246 21.0777C29.9146 21.7645 29.311 22.581 28.4808 23.5777C27.6486 24.5764 26.8225 25.4139 25.9572 26.1362C25.0879 26.8628 24.4266 27.3673 23.9384 27.6793C23.4605 27.985 23.0629 28.2321 22.7559 28.4163C22.4551 28.5985 21.9999 28.8518 21.3654 29.191C20.735 29.5302 20.1108 29.8149 19.4598 30.062C18.8068 30.3112 18.1805 30.4661 17.4925 30.554C16.8065 30.6399 16.2235 30.6838 15.7064 30.6859H15.692C15.1749 30.6859 14.6969 30.6064 14.1449 30.4305C13.5907 30.2546 13.1354 30.062 12.709 29.8275C12.2826 29.593 11.9282 29.3836 11.6254 29.1889C11.5986 29.1722 11.5698 29.1638 11.5409 29.1638C11.4874 29.1638 11.4359 29.191 11.405 29.2392C11.3823 29.2748 11.3741 29.3187 11.3844 29.3627C11.3947 29.4046 11.4194 29.4423 11.4544 29.4653L11.4626 29.4506ZM6.05705 9.72754C6.23627 9.15386 6.39696 8.68276 6.53498 8.32473C6.6833 7.93739 6.93875 7.44955 7.36313 6.73977C7.77514 6.05093 8.23659 5.43118 8.81547 4.79258C9.39641 4.1519 9.87846 3.65777 10.2884 3.28299C10.7107 2.89774 11.269 2.5104 12.0456 2.06653C12.8408 1.61218 13.634 1.26881 14.5466 0.986154C15.4715 0.697217 16.2502 0.535999 16.9919 0.479468C17.7541 0.420843 18.1764 0.431312 18.6667 0.429218C18.6708 0.429218 18.6729 0.429218 18.677 0.429218C19.1755 0.429218 19.8368 0.556936 20.6011 1.00709C21.3097 1.42375 22.0411 1.9765 22.8981 2.74699C23.7077 3.47562 24.371 4.15399 24.9231 4.8219L25.4072 5.40815L25.0529 5.18411C24.4822 4.8219 23.8168 4.49946 23.1762 4.27333C22.5108 4.03884 21.7712 3.86087 21.0358 3.75827C20.323 3.65777 19.4392 3.60124 18.4833 3.59077C17.5295 3.5824 16.5222 3.63474 15.5642 3.74571C14.6125 3.85668 13.7349 4.07234 13.0983 4.35499C13.0489 4.37593 12.9995 4.39896 12.9521 4.42199C12.814 4.46387 12.6863 4.50365 12.5627 4.54552C11.7655 4.8219 11.0259 5.1883 10.4821 5.57983C9.93202 5.97555 9.33254 6.46758 8.74955 7.00149C8.15419 7.54795 7.70922 7.97298 7.42699 8.2703C7.15712 8.55295 6.78219 9.00311 6.27953 9.64589C6.25069 9.68357 6.22185 9.72126 6.19301 9.75895L5.93962 10.0939L6.05293 9.72964L6.05705 9.72754ZM23.3451 4.77583L23.3039 4.90355C22.8754 4.77374 22.3913 4.63137 21.8701 4.48271L21.8268 4.47015L21.8598 4.34033C22.2697 4.42827 22.6591 4.53505 23.0484 4.66696C23.1514 4.70046 23.2503 4.73815 23.3471 4.77374L23.3451 4.77583ZM5.48641 12.5227C5.53173 12.106 5.58529 11.7229 5.65327 11.3502L5.65945 11.3334C5.87988 10.8603 6.16623 10.3934 6.5597 9.85945C7.01291 9.25436 7.37549 8.81048 7.67213 8.50061C7.93788 8.22005 8.33959 7.8348 8.89993 7.31974L8.99263 7.41395C8.71247 7.72802 8.43848 8.06301 8.17685 8.40848C7.67007 9.07639 7.31986 9.56004 7.18802 9.77361L6.6936 10.5755C6.50614 10.8812 6.26717 11.3104 5.9664 11.8883C5.84898 12.1144 5.72538 12.3887 5.59765 12.709L5.42049 13.155L5.48641 12.5185V12.5227ZM19.5608 28.4561C19.1446 28.6383 18.7408 28.7848 18.2876 28.9209C17.6655 29.1073 17.1237 29.2203 16.5325 29.2915C15.9907 29.3564 15.4324 29.3962 14.7814 29.415C14.7608 29.415 14.7402 29.415 14.7196 29.415C14.1407 29.415 13.5062 29.1805 12.4185 28.5713C11.3329 27.9641 10.4635 27.4406 9.75692 26.9758C9.04826 26.5068 8.44672 26.0944 7.91728 25.7133C7.38991 25.3322 6.97995 25.0349 6.68124 24.813C6.38254 24.5952 6.14151 24.344 5.81602 23.919C5.49671 23.5002 5.24126 23.1443 5.01259 22.7967C4.77157 22.4324 4.56762 22.0304 4.33483 21.5384C4.09793 21.0254 3.9496 20.5334 3.83836 19.8948C3.73536 19.2981 3.69621 18.7223 3.71269 18.023C3.72918 17.3488 3.77656 16.8819 3.86926 16.5071C3.95578 16.1574 4.05055 15.7973 4.15973 15.4079C4.25655 15.0645 4.42754 14.5536 4.73449 13.6994C4.77981 13.5738 4.82513 13.4502 4.87045 13.3288L5.03938 12.8723L5.00023 13.3581C4.95491 13.9046 4.91989 14.4845 4.89517 15.0833C4.82513 15.5419 4.80247 15.9669 4.83131 16.3145C4.83749 16.4024 4.84779 16.4945 4.85809 16.5846L4.86427 16.6369C4.87045 17.4388 4.90547 18.2282 4.96933 18.9882C5.05998 20.0539 5.25156 21.0777 5.52555 21.9466C5.78512 22.7695 6.16417 23.5484 6.56794 24.0885C6.96347 24.6162 7.42699 25.0852 7.81016 25.3427C8.22011 25.617 8.74131 25.8829 9.23572 26.0692C9.7116 26.2472 10.9353 26.7769 11.0136 26.8209C11.0156 26.8209 11.0197 26.8209 11.0197 26.8167C10.9518 26.6073 10.9188 26.645 10.8735 26.5319C10.8323 26.4273 10.822 26.3142 10.721 26.266C10.6613 26.2388 10.6942 26.2409 10.5851 26.1928L9.39229 25.6693C8.83195 25.4285 8.43642 25.215 8.06973 24.9554C7.67831 24.679 7.35282 24.344 6.94287 23.7996C6.54322 23.2657 6.24863 22.669 5.9561 21.8043C5.7295 21.1322 5.57087 20.4203 5.46169 19.5619L5.40813 19.1536L5.58529 19.5242C5.68623 19.7336 5.78924 19.9178 5.8943 20.0706C6.12503 20.4119 6.52056 20.9521 7.08914 21.5886C7.60003 22.1602 8.19127 22.7465 8.79693 23.2866C9.49117 23.9022 10.0247 24.3545 10.4306 24.6706C10.8941 25.0307 11.5245 25.4537 12.2517 25.8913C13.0242 26.3561 13.704 26.7141 14.217 26.9235C14.732 27.1328 15.1811 27.3276 15.5931 27.516C16.0051 27.7065 16.6334 27.9201 17.3627 28.1232C18.1228 28.3326 18.8912 28.41 19.4722 28.3368L19.9934 28.2677L19.5608 28.4561ZM29.4511 20.0351C29.2142 20.525 28.932 20.9835 28.5653 21.4755L28.454 21.4023C28.5488 21.2348 28.6415 21.0631 28.7404 20.8851C29.138 20.1565 29.5212 19.3651 29.8796 18.5359L30.0032 18.582C29.8528 19.1012 29.6777 19.564 29.4511 20.0351ZM30.339 16.4799C30.2484 16.7395 30.1577 16.9887 30.0609 17.242C29.5788 18.5003 29.0556 19.6393 28.4582 20.7281C27.8546 21.8315 27.3416 22.7109 26.8925 23.4185L26.8596 23.4709C26.7257 23.6216 26.5917 23.7724 26.4496 23.9357C26.0706 24.3691 25.5741 24.8486 24.9293 25.4034C24.2103 26.0253 23.4028 26.5508 22.3913 27.0596C21.9051 27.2983 21.4787 27.5139 21.1058 27.7024L21.0914 27.7086C20.529 27.8343 19.9872 27.9243 19.433 27.9871C19.2826 28.0038 19.1323 28.0122 18.9819 28.0122C18.5204 28.0122 18.0425 27.9306 17.4657 27.761C16.6705 27.5244 16.1431 27.338 15.7599 27.158C15.3685 26.9716 14.8988 26.7685 14.3653 26.555C13.8255 26.3372 13.2219 26.0169 12.4638 25.5437C11.6563 25.0391 11.1124 24.6643 10.6963 24.3293C10.2349 23.9587 9.69718 23.4939 9.09358 22.9495C8.41994 22.3403 7.89668 21.8085 7.44759 21.2725C6.94493 20.6716 6.59472 20.213 6.31455 19.7859C6.01172 19.3232 5.8222 18.8646 5.65739 18.203C5.49053 17.5247 5.39989 16.9321 5.3628 16.2831C5.32778 15.6298 5.41019 15.0101 5.64709 14.1453C5.8737 13.3351 6.10855 12.6923 6.39078 12.1186C6.64622 11.5973 6.87489 11.1764 7.08502 10.833C7.2869 10.5085 7.45171 10.2405 7.57943 10.0311C7.70716 9.82385 8.00174 9.41348 8.53942 8.70161C9.06062 8.01067 9.56945 7.4307 10.1463 6.88005C10.7087 6.33986 11.1887 5.94205 11.6563 5.63008C12.1136 5.32649 12.6286 5.05011 13.2734 4.76327C13.4238 4.69627 13.5845 4.63346 13.7534 4.57693C14.2252 4.47643 14.6969 4.41362 15.2017 4.38221C16.1122 4.32777 16.8353 4.29637 17.4142 4.2859C17.9683 4.27752 18.6028 4.29846 19.3568 4.3508C20.0922 4.40105 20.8607 4.54552 21.7815 4.80515C22.6694 5.0564 23.4378 5.28461 24.0641 5.48771C24.6862 5.68871 25.3743 6.04464 26.2312 6.60786L26.4393 6.75024L26.5361 6.88214C26.7318 7.14805 26.9605 7.45792 27.2242 7.81805C27.6671 8.42314 28.0791 8.99473 28.4479 9.51398C28.7878 9.99554 29.0597 10.5022 29.3275 11.1576C29.5891 11.7962 29.7766 12.284 29.9002 12.6441C30.0197 12.9917 30.1062 13.4858 30.1948 14.3024C30.2772 15.0833 30.3246 15.7492 30.3411 16.3375C30.3411 16.3668 30.3411 16.3961 30.3411 16.4254V16.4757L30.3369 16.4862L30.339 16.4799ZM30.8973 14.2898C30.8726 14.5097 30.8293 14.7504 30.7654 15.0289L30.6686 15.4518L30.6356 15.0184C30.6171 14.7756 30.5944 14.5222 30.5697 14.2584C30.4997 13.513 30.3905 12.8765 30.2731 12.5122C30.1598 12.1605 29.9641 11.6517 29.6942 10.9984C29.4305 10.3619 29.103 9.75057 28.7713 9.27739C28.555 8.96961 28.2995 8.61158 27.9885 8.18445L27.628 7.68823L28.3552 8.33311C28.9814 8.89842 29.48 9.40929 29.8796 9.89714C30.1763 10.2573 30.4029 10.565 30.5924 10.8644C30.749 11.1911 30.8417 11.5868 30.9096 12.1961C30.9859 12.8765 30.9817 13.5423 30.8973 14.2898Z" fill="var(--fill-0, black)"/>
<g id="Group 1">
<path id="Vector_2" d="M51.3424 19.1154V11.3801L45.2453 1.30578H46.5026L50.7528 8.32647L51.8542 10.3377H51.9062C52.2808 9.57517 52.6479 8.90478 53.0077 8.32647L57.2579 1.30578H58.5151L52.4439 11.3801V19.1154H51.3424V19.1154Z" fill="var(--fill-0, black)"/>
<path id="Vector_3" d="M51.3424 19.1154V11.3801L45.2453 1.30578H46.5026L50.7528 8.32647L51.8542 10.3377H51.9062C52.2808 9.57517 52.6479 8.90478 53.0077 8.32647L57.2579 1.30578H58.5151L52.4439 11.3801V19.1154H51.3424V19.1154Z" stroke="var(--stroke-0, black)" stroke-width="0.75" stroke-miterlimit="10"/>
<path id="Vector_4" d="M64.5863 19.1154L71.299 1.30578H72.4784L79.1912 19.1154H78.0118L75.6827 12.9603H68.0762L65.7693 19.1154H64.59H64.5863ZM68.4545 11.94H75.2933L72.5785 4.71668L71.9147 2.58026H71.8628C71.6069 3.49745 71.3843 4.20836 71.1952 4.71668L68.4545 11.94V11.94Z" fill="var(--fill-0, black)"/>
<path id="Vector_5" d="M64.5863 19.1154L71.299 1.30578H72.4784L79.1912 19.1154H78.0118L75.6827 12.9603H68.0762L65.7693 19.1154H64.59H64.5863ZM68.4545 11.94H75.2933L72.5785 4.71668L71.9147 2.58026H71.8628C71.6069 3.49745 71.3843 4.20836 71.1952 4.71668L68.4545 11.94V11.94Z" stroke="var(--stroke-0, black)" stroke-width="0.75" stroke-miterlimit="10"/>
<path id="Vector_6" d="M86.846 17.2073L87.5878 16.3674C88.9192 17.6898 90.4917 18.3528 92.3015 18.3528C93.4957 18.3528 94.4748 18.0324 95.2351 17.3878C95.9954 16.7432 96.3737 15.896 96.3737 14.8425C96.3737 13.9253 96.0585 13.1518 95.428 12.5145C94.7975 11.8773 94.0335 11.369 93.136 10.9859C92.2385 10.6028 91.341 10.216 90.4472 9.81455C89.5497 9.41673 88.7857 8.86421 88.1552 8.16067C87.5247 7.45712 87.2058 6.59519 87.2058 5.57856C87.2058 4.20462 87.7213 3.09958 88.756 2.25975C89.787 1.41991 91.074 1 92.6131 1C94.4748 1 95.9843 1.55252 97.1451 2.65388L96.5295 3.59685C96.0511 3.12168 95.4502 2.74965 94.7233 2.47708C93.9964 2.2045 93.2769 2.06821 92.5574 2.06821C91.3966 2.06821 90.4064 2.38131 89.5868 3.0075C88.7671 3.63369 88.3555 4.46615 88.3555 5.5012C88.3555 6.36682 88.6707 7.09983 89.3012 7.70023C89.9317 8.30432 90.6994 8.78686 91.5932 9.15152C92.4907 9.51619 93.3882 9.90295 94.282 10.3081C95.1795 10.717 95.9435 11.2843 96.574 12.0136C97.2045 12.7429 97.5197 13.6417 97.5197 14.7099C97.5197 16.0838 97.045 17.211 96.0956 18.095C95.1461 18.979 93.8703 19.4174 92.2645 19.4174C90.1282 19.4174 88.3184 18.6807 86.8349 17.2036" fill="var(--fill-0, black)"/>
<path id="Vector_7" d="M86.846 17.2073L87.5878 16.3674C88.9192 17.6898 90.4917 18.3528 92.3015 18.3528C93.4957 18.3528 94.4748 18.0324 95.2351 17.3878C95.9954 16.7432 96.3737 15.896 96.3737 14.8425C96.3737 13.9253 96.0585 13.1518 95.428 12.5145C94.7975 11.8773 94.0335 11.369 93.136 10.9859C92.2385 10.6028 91.341 10.216 90.4472 9.81455C89.5497 9.41673 88.7857 8.86421 88.1552 8.16067C87.5247 7.45712 87.2058 6.59519 87.2058 5.57856C87.2058 4.20462 87.7213 3.09958 88.756 2.25975C89.787 1.41991 91.074 1 92.6131 1C94.4748 1 95.9843 1.55252 97.1451 2.65388L96.5295 3.59685C96.0511 3.12168 95.4502 2.74965 94.7233 2.47708C93.9964 2.2045 93.2769 2.06821 92.5574 2.06821C91.3966 2.06821 90.4064 2.38131 89.5868 3.0075C88.7671 3.63369 88.3555 4.46615 88.3555 5.5012C88.3555 6.36682 88.6707 7.09983 89.3012 7.70023C89.9317 8.30432 90.6994 8.78686 91.5932 9.15152C92.4907 9.51619 93.3882 9.90295 94.282 10.3081C95.1795 10.717 95.9435 11.2843 96.574 12.0136C97.2045 12.7429 97.5197 13.6417 97.5197 14.7099C97.5197 16.0838 97.045 17.211 96.0956 18.095C95.1461 18.979 93.8703 19.4174 92.2645 19.4174C90.1282 19.4174 88.3184 18.6807 86.8349 17.2036L86.846 17.2073Z" stroke="var(--stroke-0, black)" stroke-width="0.75" stroke-miterlimit="10"/>
<path id="Vector_8" d="M47.4705 26.357L46.139 29.8858L46.1205 29.9337H46.4283L46.8845 28.7218H48.3346L48.7945 29.9337H49.1023L47.7561 26.357H47.4742H47.4705ZM48.2308 28.4529H46.9846L47.5076 27.0753C47.5372 26.9943 47.5743 26.8838 47.6114 26.7475L47.7153 27.0753L48.2345 28.4529H48.2308Z" fill="var(--fill-0, black)"/>
<path id="Vector_9" d="M52.6924 28.3276C52.889 28.2724 53.0522 28.1619 53.1746 27.9924C53.3081 27.812 53.3785 27.5909 53.3785 27.3368C53.3785 27.1379 53.334 26.9611 53.2413 26.8064C53.1523 26.6553 53.0262 26.5375 52.8705 26.4638C52.7258 26.3901 52.507 26.3533 52.2177 26.3533H51.1496V29.93H51.4352V28.3755H52.392L53.2302 29.93H53.5677L52.7481 28.4197C52.7295 28.3829 52.7073 28.3497 52.6887 28.324L52.6924 28.3276ZM53.0781 27.3331C53.0781 27.5615 53.0114 27.753 52.8816 27.893C52.7518 28.033 52.5738 28.103 52.3587 28.103H51.4352V26.6185H52.2066C52.4254 26.6185 52.5886 26.6406 52.685 26.6848C52.8037 26.7364 52.9038 26.8211 52.9706 26.9353C53.0411 27.0495 53.0781 27.1821 53.0781 27.3294" fill="var(--fill-0, black)"/>
<path id="Vector_10" d="M58.4187 29.2523C58.0997 29.5617 57.7066 29.7201 57.2467 29.7201C56.7868 29.7201 56.4382 29.5654 56.1601 29.2633C55.8782 28.9576 55.7373 28.5745 55.7373 28.1214C55.7373 27.6684 55.8782 27.3 56.1563 27.009C56.4345 26.718 56.7942 26.5707 57.2319 26.5707C57.4321 26.5707 57.6324 26.6038 57.829 26.6738C58.0255 26.7401 58.1961 26.8359 58.3334 26.9574L58.3593 26.9832L58.5336 26.7696L58.5077 26.7475C58.185 26.4491 57.7511 26.2981 57.2207 26.2981C56.6904 26.2981 56.275 26.4749 55.9375 26.8212C55.6037 27.1674 55.4331 27.6057 55.4331 28.1251C55.4331 28.6445 55.6037 29.0975 55.9375 29.4585C56.2713 29.8195 56.7089 30 57.2393 30C57.7696 30 58.2221 29.8195 58.5967 29.4585L58.6226 29.4364L58.4409 29.2338L58.415 29.2596L58.4187 29.2523Z" fill="var(--fill-0, black)"/>
<path id="Vector_11" d="M63.2252 28.0035H61.0518V26.3533H60.7663V29.9336H61.0518V28.2724H63.2252V29.9336H63.5107V26.3533H63.2252V28.0035Z" fill="var(--fill-0, black)"/>
<path id="Vector_12" d="M66.2701 26.3533H65.9845V29.93H66.2701V26.3533Z" fill="var(--fill-0, black)"/>
<path id="Vector_13" d="M68.2987 26.6259H69.6153V29.9336H69.9009V26.6259H71.2212V26.3533H68.2987V26.6259Z" fill="var(--fill-0, black)"/>
<path id="Vector_14" d="M73.5317 28.265H74.941V27.9924H73.5317V26.6259H75.2489V26.3533H73.2461V29.9336H75.3453V29.6611H73.5317V28.265Z" fill="var(--fill-0, black)"/>
<path id="Vector_15" d="M80.1814 29.2523C79.8625 29.5617 79.4694 29.7201 79.0095 29.7201C78.5496 29.7201 78.201 29.5654 77.9228 29.2633C77.641 28.9576 77.5 28.5745 77.5 28.1214C77.5 27.6684 77.641 27.3 77.9191 27.009C78.1973 26.718 78.557 26.5707 78.9947 26.5707C79.1949 26.5707 79.3952 26.6038 79.5955 26.6738C79.792 26.7401 79.9626 26.8359 80.0999 26.9574L80.1258 26.9832L80.3001 26.7696L80.2779 26.7475C79.9552 26.4491 79.525 26.2981 78.9909 26.2981C78.4569 26.2981 78.0452 26.4749 77.7077 26.8212C77.3739 27.1674 77.2033 27.6057 77.2033 28.1251C77.2033 28.6445 77.3739 29.0975 77.7077 29.4585C78.0415 29.8195 78.4791 30 79.0095 30C79.5398 30 79.9923 29.8195 80.3669 29.4585L80.3891 29.4364L80.2074 29.2338L80.1814 29.2596V29.2523Z" fill="var(--fill-0, black)"/>
<path id="Vector_16" d="M82.0803 26.6259H83.3969V29.9336H83.6862V26.6259H85.0028V26.3533H82.0803V26.6259Z" fill="var(--fill-0, black)"/>
<path id="Vector_17" d="M89.4088 28.6739C89.4088 28.9981 89.3124 29.2559 89.1195 29.4401C88.9266 29.6243 88.6633 29.72 88.3407 29.72C88.018 29.72 87.7547 29.6279 87.5618 29.4401C87.3727 29.2559 87.2763 29.0018 87.2763 28.685V26.3533H86.9907V28.6923C86.9907 29.0828 87.1168 29.3996 87.369 29.6353C87.6175 29.8711 87.9475 29.9889 88.3481 29.9889C88.7486 29.9889 89.075 29.8711 89.3235 29.6353C89.572 29.3996 89.7018 29.0828 89.7018 28.6887V26.3497H89.4162V28.6702L89.4088 28.6739Z" fill="var(--fill-0, black)"/>
<path id="Vector_18" d="M93.6701 28.3276C93.8666 28.2724 94.0298 28.1619 94.1522 27.9924C94.2857 27.812 94.3562 27.5909 94.3562 27.3368C94.3562 27.1379 94.3117 26.9611 94.219 26.8064C94.13 26.6553 94.0039 26.5375 93.8444 26.4638C93.6997 26.3901 93.4809 26.3533 93.1916 26.3533H92.1198V29.93H92.4091V28.3755H93.366L94.193 29.9115L94.2041 29.93H94.5416L93.722 28.4197C93.7034 28.3829 93.6812 28.3497 93.6627 28.324L93.6701 28.3276ZM94.0521 27.3331C94.0521 27.5615 93.9853 27.753 93.8555 27.893C93.7257 28.033 93.5477 28.103 93.3326 28.103H92.4091V26.6185H93.1805C93.3993 26.6185 93.5625 26.6406 93.6589 26.6848C93.7776 26.7401 93.8778 26.8211 93.9445 26.9353C94.015 27.0495 94.0521 27.1821 94.0521 27.3294" fill="var(--fill-0, black)"/>
<path id="Vector_19" d="M96.9411 29.6611V28.265H98.3504V27.9924H96.9411V26.6259H98.6583V26.3533H96.6556V29.9336H98.7547V29.6611H96.9411Z" fill="var(--fill-0, black)"/>
</g>
</g>
</svg>
