<?xml version="1.0" encoding="UTF-8"?><svg id="Layer_2" xmlns="http://www.w3.org/2000/svg" viewBox="0 0 95.51 31"><g id="Layer_1-2"><path d="M28.48,12.56c-.21-.61-.44-1.15-.66-1.54-.06-.1-.12-.21-.19-.32-.03-.06-.05-.1-.07-.14-.2-.35-.48-.75-.81-1.17-.33-.42-.81-.91-1.41-1.43-.32-.28-.7-.58-1.12-.89-.22-.19-.43-.38-.63-.55-.05-.04-.1-.09-.16-.13l-.07-.05c-.08-.09-.14-.17-.2-.24-.27-.33-.68-.84-1.23-1.49-.54-.63-1.22-1.35-2.05-2.12-.77-.72-1.57-1.35-2.33-1.83-.69-.43-1.62-.65-2.12-.65h-.02c-.52,0-.98,0-1.7.06-.75.06-1.63.24-2.54.53-.92.3-1.81.69-2.58,1.13-.78.46-1.41.9-1.82,1.28-.42.4-.94.93-1.49,1.54-.57.63-1.09,1.32-1.5,2-.4.66-.71,1.24-.87,1.64-.15.36-.34.92-.58,1.69-.13.42-.25.9-.34,1.44v.02c-.03.06-.06.12-.08.17-.26.61-.55,1.35-.82,2.06-.28.72-.49,1.34-.6,1.73-.1.35-.2.72-.3,1.11-.09.36-.15.93-.18,1.61-.03.65.01,1.35.11,1.97.09.57.27,1.2.49,1.77.19.5.44,1,.69,1.37.23.34.51.74.83,1.15.3.4.68.79.97,1.01.31.23.76.56,1.24.91.53.39,1.16.81,1.86,1.28.71.47,1.62,1.01,2.7,1.62,1.04.58,2.06.93,2.66.9.5-.02,1.02-.05,1.51-.08l.27-.02c.57-.03,1.24-.17,1.88-.37.67-.22,1.29-.47,1.8-.74l.32-.17c.42-.22.94-.5,1.56-.84.32-.11.63-.24.94-.37.66-.3,1.23-.62,1.67-.94.43-.32.86-.72,1.21-1.13.3-.36.67-.87,1.06-1.47.2-.23.4-.45.59-.66.26-.27.62-.71,1.05-1.26.44-.56.82-1.16,1.11-1.73.28-.54.52-1.2.71-1.91.17-.65.26-1.33.25-1.9h0s0-.02,0-.02c.27-.82.44-1.5.5-2.03.06-.56.08-1.15.05-1.71l-.03-.46.18.52c.21.62.35,1.28.43,2.08.08.8.09,1.48.03,2.13-.06.65-.22,1.29-.52,2.06-.29.76-.62,1.44-1.04,2.13-.41.69-1.01,1.5-1.84,2.5-.83,1-1.66,1.84-2.52,2.56-.87.73-1.53,1.23-2.02,1.54-.48.31-.88.55-1.18.74-.3.18-.76.44-1.39.77-.63.34-1.25.62-1.91.87-.65.25-1.28.4-1.97.49-.69.09-1.27.13-1.79.13h-.01c-.52,0-.99-.08-1.55-.26-.55-.18-1.01-.37-1.44-.6-.43-.23-.78-.44-1.08-.64-.03-.02-.06-.03-.08-.03-.05,0-.11.03-.14.08-.02.04-.03.08-.02.12.01.04.03.08.07.1h0c.3.18.67.4,1.1.64.42.23.95.45,1.49.63.54.17,1.14.27,1.64.27h.01c.52,0,1.15-.05,1.83-.13.68-.09,1.39-.26,2.04-.51.65-.24,1.32-.55,1.94-.89.63-.34,1.1-.6,1.4-.78.31-.19.71-.44,1.19-.74.49-.31,1.19-.85,2.05-1.57.87-.73,1.73-1.6,2.56-2.6.82-.98,1.47-1.86,1.87-2.54.41-.68.77-1.43,1.06-2.18.29-.74.48-1.5.54-2.14.06-.64.05-1.4-.03-2.19-.08-.8-.24-1.54-.45-2.15ZM2.81,9.73h0c.18-.58.34-1.05.48-1.4.15-.39.4-.88.83-1.58.41-.69.87-1.31,1.45-1.95.58-.64,1.06-1.13,1.47-1.51.42-.39.98-.77,1.76-1.22.8-.45,1.59-.8,2.5-1.08.92-.29,1.7-.45,2.45-.51.76-.06,1.18-.05,1.67-.05h.01c.5,0,1.16.13,1.92.58.71.42,1.44.97,2.3,1.74.81.73,1.47,1.41,2.03,2.07l.48.59-.35-.22c-.57-.36-1.24-.68-1.88-.91-.67-.23-1.4-.41-2.14-.52-.71-.1-1.6-.16-2.55-.17-.95,0-1.96.04-2.92.15-.95.11-1.83.33-2.47.61-.05.02-.1.04-.15.07-.14.04-.27.08-.39.12-.8.28-1.54.64-2.08,1.03-.55.4-1.15.89-1.73,1.42-.6.55-1.04.97-1.32,1.27-.27.28-.64.73-1.15,1.38-.03.04-.06.08-.09.11l-.25.33.11-.36ZM20.1,4.77h0s-.04.13-.04.13c-.43-.13-.91-.27-1.43-.42h-.04s.03-.14.03-.14c.41.09.8.19,1.19.33.1.03.2.07.3.11ZM2.24,12.52h0c.05-.41.1-.8.17-1.17v-.02c.23-.47.51-.94.91-1.47.45-.61.82-1.05,1.11-1.36.27-.28.67-.67,1.23-1.18l.09.09c-.28.31-.55.65-.82.99-.51.67-.86,1.15-.99,1.37l-.49.8c-.19.31-.43.73-.73,1.31-.12.23-.24.5-.37.82l-.18.45.07-.64ZM16.32,28.46c-.42.18-.82.33-1.27.46-.62.19-1.16.3-1.76.37-.54.06-1.1.1-1.75.12h-.06c-.58,0-1.21-.23-2.3-.84-1.09-.61-1.96-1.13-2.66-1.6-.71-.47-1.31-.88-1.84-1.26-.53-.38-.94-.68-1.24-.9-.3-.22-.54-.47-.87-.89-.32-.42-.57-.77-.8-1.12-.24-.36-.45-.77-.68-1.26-.24-.51-.39-1.01-.5-1.64-.1-.6-.14-1.17-.13-1.87.02-.67.06-1.14.16-1.52.09-.35.18-.71.29-1.1.1-.34.27-.85.57-1.71.05-.13.09-.25.14-.37l.17-.46-.04.49c-.05.55-.08,1.13-.11,1.73-.07.46-.09.88-.06,1.23,0,.09.02.18.03.27v.05c.01.8.05,1.59.11,2.35.09,1.07.28,2.09.56,2.96.26.82.64,1.6,1.04,2.14.4.53.86,1,1.24,1.25.41.27.93.54,1.43.73.48.18,1.7.71,1.78.75,0,0,0,0,0,0-.07-.21-.1-.17-.15-.28-.04-.1-.05-.22-.15-.27-.06-.03-.03-.03-.14-.07l-1.19-.52c-.56-.24-.96-.45-1.32-.71-.39-.28-.72-.61-1.13-1.16-.4-.53-.69-1.13-.99-2-.23-.67-.39-1.38-.49-2.24l-.05-.41.18.37c.1.21.2.39.31.55.23.34.63.88,1.19,1.52.51.57,1.1,1.16,1.71,1.7.69.62,1.23,1.07,1.63,1.38.46.36,1.09.78,1.82,1.22.77.46,1.45.82,1.97,1.03.52.21.96.4,1.38.59.41.19,1.04.4,1.77.61.76.21,1.53.29,2.11.21l.52-.07-.43.19ZM26.21,20.04c-.24.49-.52.95-.89,1.44l-.11-.07c.09-.17.19-.34.29-.52.4-.73.78-1.52,1.14-2.35l.12.05c-.15.52-.33.98-.55,1.45ZM27.1,16.43v.05h0s0,0,0,0c-.09.26-.18.51-.28.76-.48,1.26-1.01,2.4-1.6,3.49-.6,1.1-1.12,1.98-1.57,2.69l-.03.05c-.13.15-.27.3-.41.46-.38.43-.88.91-1.52,1.47-.72.62-1.53,1.15-2.54,1.66-.49.24-.91.45-1.29.64h-.01c-.56.13-1.1.22-1.66.28-.15.02-.3.03-.45.03-.46,0-.94-.08-1.52-.25-.8-.24-1.32-.42-1.71-.6-.39-.19-.86-.39-1.39-.6-.54-.22-1.14-.54-1.9-1.01-.81-.5-1.35-.88-1.77-1.21-.46-.37-1-.84-1.6-1.38-.67-.61-1.2-1.14-1.65-1.68-.5-.6-.85-1.06-1.13-1.49-.3-.46-.49-.92-.66-1.58-.17-.68-.26-1.27-.29-1.92-.04-.65.05-1.27.28-2.14.23-.81.46-1.45.74-2.03.26-.52.48-.94.69-1.29.2-.32.37-.59.49-.8.13-.21.42-.62.96-1.33.52-.69,1.03-1.27,1.61-1.82.56-.54,1.04-.94,1.51-1.25.46-.3.97-.58,1.62-.87.15-.07.31-.13.48-.19.47-.1.94-.16,1.45-.19.91-.05,1.63-.09,2.21-.1.55,0,1.19.01,1.94.06.74.05,1.5.19,2.42.45.89.25,1.66.48,2.28.68.62.2,1.31.56,2.17,1.12l.21.14.1.13c.2.27.42.58.69.94.44.61.85,1.18,1.22,1.7.34.48.61.99.88,1.64.26.64.45,1.13.57,1.49.12.35.21.84.29,1.66.08.78.13,1.45.15,2.04v.09ZM27.65,14.29c-.02.22-.07.46-.13.74l-.1.42-.03-.43c-.02-.24-.04-.5-.07-.76-.07-.75-.18-1.38-.3-1.75-.11-.35-.31-.86-.58-1.51-.26-.64-.59-1.25-.92-1.72-.22-.31-.47-.67-.78-1.09l-.36-.5.73.64c.63.57,1.12,1.08,1.52,1.56.3.36.52.67.71.97.16.33.25.72.32,1.33.08.68.07,1.35-.01,2.09Z" fill="#000000"/><path d="M49.44,8.13c-.27.43-.54.92-.82,1.45l-.79-1.45-4.36-7.2h-2.13l6.39,10.55v8.01h1.85v-8.01L55.93.93h-2.13l-4.36,7.2Z" fill="#000000"/><path d="M76.49,19.49L69.49.93h-1.7l-6.8,18.05-.19.51h1.98l2.31-6.16h7.09l2.33,6.16h1.98ZM71.51,11.57h-5.75l2.55-6.72c.11-.29.22-.64.35-1.05l.33,1.06,2.52,6.72Z" fill="#000000"/><path d="M93.61,11.77c-.66-.77-1.48-1.37-2.42-1.8-.9-.41-1.8-.8-2.7-1.16-.85-.35-1.59-.81-2.17-1.38-.56-.53-.83-1.16-.83-1.93,0-.92.35-1.64,1.08-2.2,1.22-.93,2.99-1.14,4.78-.48.67.25,1.24.6,1.67,1.03l.33.32,1.04-1.59-.23-.22c-1.23-1.17-2.84-1.76-4.79-1.76-1.62,0-3,.45-4.09,1.34-1.12.91-1.69,2.12-1.69,3.61,0,1.11.35,2.06,1.04,2.83.66.74,1.48,1.33,2.42,1.75.9.4,1.79.79,2.69,1.17.85.36,1.58.85,2.17,1.45.56.57.84,1.24.84,2.06,0,.95-.33,1.69-1.01,2.26-.69.58-1.59.88-2.69.88-1.7,0-3.2-.63-4.45-1.88l-.28-.28-.84.95-1.25-.4,1.1,1.09c1.55,1.54,3.46,2.32,5.69,2.32,1.7,0,3.07-.48,4.09-1.42,1.02-.95,1.54-2.18,1.54-3.66,0-1.16-.35-2.15-1.04-2.94Z" fill="#000000"/><path d="M44.23,26.36h0l-1.33,3.53-.02.05h.31l.46-1.21h1.45l.46,1.21h.31l-1.35-3.58h-.28ZM44.99,28.45h-1.25l.52-1.38c.03-.08.07-.19.1-.33l.1.33.52,1.38h0Z" fill="#000000"/><path d="M49.44,28.32h0c.2-.05.36-.16.48-.33.13-.18.2-.4.2-.66,0-.2-.04-.38-.14-.53-.09-.15-.22-.27-.37-.34-.14-.07-.36-.11-.65-.11h-1.07v3.58h.29v-1.55h.96l.84,1.55h.34l-.82-1.51s-.04-.07-.06-.1ZM49.11,28.1h-.92v-1.48h.77c.22,0,.38.02.48.07.12.05.22.14.29.25.07.11.11.25.11.39h0c0,.23-.07.42-.2.56-.13.14-.31.21-.52.21Z" fill="#000000"/><path d="M55.17,29.26h0c-.32.3-.71.46-1.17.46s-.81-.15-1.09-.46c-.28-.31-.42-.69-.42-1.14s.14-.82.42-1.11c.28-.29.64-.44,1.08-.44.2,0,.4.03.6.1.2.07.37.16.5.28l.03.03.17-.21-.03-.02c-.32-.3-.76-.45-1.29-.45s-.95.18-1.28.52c-.33.35-.5.78-.5,1.3s.17.97.5,1.33.77.54,1.3.54.98-.18,1.36-.54l.03-.02-.18-.2-.03.03Z" fill="#000000"/><polygon points="59.98 28 57.81 28 57.81 26.35 57.52 26.35 57.52 29.93 57.81 29.93 57.81 28.27 59.98 28.27 59.98 29.93 60.27 29.93 60.27 26.35 59.98 26.35 59.98 28" fill="#000000"/><rect x="62.74" y="26.35" width=".29" height="3.58" fill="#000000"/><polygon points="65.05 26.63 66.37 26.63 66.37 29.93 66.66 29.93 66.66 26.63 67.98 26.63 67.98 26.35 65.05 26.35 65.05 26.63" fill="#000000"/><polygon points="70.29 28.27 71.7 28.27 71.7 27.99 70.29 27.99 70.29 26.63 72 26.63 72 26.35 70 26.35 70 29.93 72.1 29.93 72.1 29.66 70.29 29.66 70.29 28.27" fill="#000000"/><path d="M76.94,29.26h0c-.32.3-.71.46-1.17.46s-.81-.15-1.09-.46c-.28-.31-.42-.69-.42-1.14s.14-.82.42-1.11c.28-.29.64-.44,1.08-.44.2,0,.4.03.6.1.2.07.37.16.5.28l.03.03.17-.21-.02-.02c-.32-.3-.75-.45-1.29-.45s-.95.18-1.28.52c-.33.35-.5.78-.5,1.3s.17.97.5,1.33c.33.36.77.54,1.3.54s.98-.18,1.36-.54l.02-.02-.18-.2-.03.03Z" fill="#000000"/><polygon points="78.83 26.63 80.15 26.63 80.15 29.93 80.44 29.93 80.44 26.63 81.76 26.63 81.76 26.35 78.83 26.35 78.83 26.63" fill="#000000"/><path d="M86.17,28.67h0c0,.33-.1.59-.29.77-.19.18-.46.28-.78.28s-.59-.09-.78-.28c-.19-.18-.29-.44-.29-.76v-2.33h-.29v2.34c0,.39.13.71.38.94.25.24.58.35.98.35s.73-.12.98-.35c.25-.24.38-.55.38-.95v-2.34h-.29v2.32Z" fill="#000000"/><path d="M90.42,28.32h0c.2-.05.36-.16.48-.33.13-.18.2-.4.2-.66,0-.2-.04-.38-.14-.53-.09-.15-.22-.27-.37-.34-.14-.07-.36-.11-.65-.11h-1.07v3.58h.29v-1.55h.96l.83,1.54v.02h.35l-.82-1.51s-.04-.07-.06-.1ZM90.09,28.1h-.92v-1.48h.77c.22,0,.38.02.48.07.12.06.22.14.29.25.07.11.11.25.11.39h0c0,.23-.07.42-.2.56-.13.14-.31.21-.52.21Z" fill="#000000"/><polygon points="93.7 29.66 93.7 28.27 95.11 28.27 95.11 27.99 93.7 27.99 93.7 26.63 95.41 26.63 95.41 26.35 93.41 26.35 93.41 29.93 95.51 29.93 95.51 29.66 93.7 29.66" fill="#000000"/></g></svg>