<?xml version="1.0" encoding="UTF-8"?><svg id="Layer_2" xmlns="http://www.w3.org/2000/svg" viewBox="0 0 7.03 7.03"><g id="Layer_1-2"><rect width="7.03" height="7.03" fill="#000000"/><path d="M2.27,6.28c.06.04.13.08.22.13.08.05.19.09.3.12.11.03.22.05.33.05h0c.1,0,.23,0,.36-.03.14-.02.27-.05.4-.1.13-.05.26-.11.38-.18.12-.07.22-.12.28-.16.06-.04.14-.09.24-.15.1-.06.24-.17.41-.31.17-.14.34-.32.51-.51.16-.19.29-.37.37-.5.08-.13.15-.28.21-.43.06-.15.1-.3.11-.42.01-.13.01-.28,0-.43-.02-.16-.05-.3-.09-.43-.04-.12-.09-.23-.13-.31-.01-.02-.02-.04-.04-.06,0-.01,0-.02-.01-.03-.04-.07-.09-.15-.16-.23-.07-.08-.16-.18-.28-.28-.06-.06-.14-.12-.22-.18-.04-.04-.09-.08-.12-.11-.01,0-.02-.02-.03-.03h-.01s-.03-.05-.04-.06c-.05-.07-.14-.17-.24-.29-.11-.13-.24-.27-.41-.42-.15-.14-.31-.27-.46-.36-.14-.08-.32-.13-.42-.13h0c-.1,0-.19,0-.34.01-.15.01-.32.05-.5.11-.18.06-.36.14-.51.22-.16.09-.28.18-.36.25-.08.08-.19.18-.3.3-.11.12-.22.26-.3.4-.08.13-.14.25-.17.32-.03.07-.07.18-.12.34-.03.08-.05.18-.07.28h0s-.01.03-.02.04c-.05.12-.11.27-.16.41-.05.14-.1.26-.12.34-.02.07-.04.14-.06.22-.02.07-.03.18-.04.32,0,.13,0,.27.02.39.02.11.05.24.1.35.04.1.09.2.14.27.05.07.1.15.16.23.06.08.13.16.19.2.06.05.15.11.25.18.11.08.23.16.37.25.14.09.32.2.53.32.21.12.41.18.53.18.1,0,.2-.01.3-.02h.05c.11,0,.24-.04.37-.08.13-.04.26-.09.36-.15l.06-.03c.08-.04.19-.1.31-.17.06-.02.13-.05.19-.07.13-.06.24-.12.33-.19.09-.06.17-.14.24-.22.06-.07.13-.17.21-.29.04-.05.08-.09.12-.13.05-.05.12-.14.21-.25.09-.11.16-.23.22-.34.05-.11.1-.24.14-.38.03-.13.05-.26.05-.38h0s0,0,0,0c.05-.16.09-.3.1-.4.01-.11.02-.23,0-.34v-.09s.03.1.03.1c.04.12.07.25.09.41.02.16.02.29,0,.42-.01.13-.04.25-.1.41-.06.15-.12.29-.21.42-.08.14-.2.3-.37.49-.16.2-.33.36-.5.51-.17.14-.3.24-.4.31-.09.06-.17.11-.23.15-.06.04-.15.09-.28.15-.12.07-.25.12-.38.17-.13.05-.25.08-.39.1-.14.02-.25.03-.35.03h0c-.1,0-.2-.02-.31-.05-.11-.03-.2-.07-.28-.12-.08-.05-.15-.09-.21-.13,0,0-.01,0-.02,0-.01,0-.02,0-.03.01,0,0,0,.02,0,.02,0,0,0,.02.01.02h0ZM1.2,2.37c.04-.11.07-.21.09-.28.03-.08.08-.17.16-.31.08-.14.17-.26.29-.39.12-.13.21-.22.29-.3.08-.08.19-.15.35-.24.16-.09.31-.16.5-.21.18-.06.34-.09.48-.1.15-.01.23,0,.33,0h0c.1,0,.23.03.38.11.14.08.29.19.45.34.16.14.29.28.4.41l.1.12-.07-.04c-.11-.07-.24-.14-.37-.18-.13-.05-.28-.08-.42-.1-.14-.02-.32-.03-.51-.03-.19,0-.39,0-.58.03-.19.02-.36.06-.49.12,0,0-.02,0-.03.01-.03,0-.05.02-.08.02-.16.05-.3.13-.41.2-.11.08-.23.18-.34.28-.12.11-.21.19-.26.25-.05.06-.13.15-.23.27,0,0-.01.01-.02.02l-.05.07.02-.07h0ZM4.62,1.39v.03c-.09-.03-.19-.05-.29-.08h0s0-.03,0-.03c.08.02.16.04.24.06.02,0,.04.01.06.02h0ZM1.09,2.92c0-.08.02-.16.03-.23h0c.04-.1.1-.19.18-.3.09-.12.16-.21.22-.27.05-.06.13-.13.24-.23l.02.02c-.06.06-.11.13-.16.2-.1.13-.17.23-.2.27l-.1.16c-.04.06-.08.15-.14.26-.02.04-.05.1-.07.16l-.04.09v-.13s.01,0,.01,0ZM3.87,6.08c-.08.04-.16.07-.25.09-.12.04-.23.06-.35.07-.11.01-.22.02-.35.02h-.01c-.11,0-.24-.05-.46-.17-.21-.12-.39-.22-.53-.32-.14-.09-.26-.17-.36-.25-.1-.08-.19-.13-.24-.18-.06-.04-.11-.09-.17-.18-.06-.08-.11-.15-.16-.22-.05-.07-.09-.15-.13-.25-.05-.1-.08-.2-.1-.33-.02-.12-.03-.23-.02-.37,0-.13.01-.23.03-.3.02-.07.04-.14.06-.22.02-.07.05-.17.11-.34,0-.02.02-.05.03-.07l.03-.09v.1c-.02.11-.02.22-.03.34-.01.09-.02.17-.01.24,0,.02,0,.04,0,.05h0c0,.17,0,.33.02.48.02.21.06.41.11.59.05.16.13.32.21.42.08.1.17.2.25.25.08.05.18.11.28.14.09.04.34.14.35.15,0,0,0,0,0,0-.01-.04-.02-.03-.03-.06,0-.02-.01-.04-.03-.05-.01,0,0,0-.03-.01l-.24-.1c-.11-.05-.19-.09-.26-.14-.08-.05-.14-.12-.22-.23-.08-.11-.14-.22-.2-.4-.04-.13-.08-.27-.1-.44v-.08s.02.07.02.07c.02.04.04.08.06.11.05.07.12.17.24.3.1.11.22.23.34.34.14.12.24.21.32.27.09.07.22.16.36.24.15.09.29.16.39.2.1.04.19.08.27.12.08.04.21.08.35.12.15.04.3.06.42.04h.1s-.09.02-.09.02ZM5.83,4.41c-.05.1-.1.19-.18.29h-.02s.04-.08.06-.12c.08-.14.15-.3.23-.47h.02c-.03.11-.06.2-.11.3ZM6.01,3.71c-.02.05-.04.1-.06.15-.1.25-.2.47-.32.69-.12.22-.22.39-.31.53h0s-.05.07-.08.1c-.08.09-.17.18-.3.29-.14.12-.3.23-.5.33-.1.05-.18.09-.25.13h0c-.11.03-.22.04-.33.06-.03,0-.06,0-.09,0-.09,0-.19-.02-.3-.05-.16-.05-.26-.08-.34-.12-.08-.04-.17-.08-.28-.12-.11-.04-.23-.11-.38-.2-.16-.1-.27-.17-.35-.24-.09-.07-.2-.17-.32-.27-.13-.12-.24-.23-.33-.33-.1-.12-.17-.21-.22-.29-.06-.09-.1-.18-.13-.31-.03-.13-.05-.25-.06-.38,0-.13,0-.25.06-.42.04-.16.09-.29.15-.4.05-.1.1-.19.14-.25.04-.06.07-.12.1-.16.03-.04.08-.12.19-.26.1-.14.2-.25.32-.36.11-.11.21-.19.3-.25.09-.06.19-.11.32-.17.03-.01.06-.03.1-.04.09-.02.19-.03.29-.04.18-.01.32-.02.44-.02.11,0,.24,0,.38.01.15,0,.3.04.48.09.18.05.33.09.45.14.12.04.26.11.43.22l.04.03.02.03c.04.05.08.11.14.19.09.12.17.23.24.34.07.1.12.2.17.33.05.13.09.22.11.29.02.07.04.17.06.33.02.15.03.29.03.4v.02h0s0,.01,0,.01h0ZM6.12,3.27s-.01.09-.03.15l-.02.08v-.09s-.01-.1-.02-.15c-.01-.15-.04-.27-.06-.35-.02-.07-.06-.17-.11-.3-.05-.13-.12-.25-.18-.34-.04-.06-.09-.13-.15-.22l-.07-.1.14.13c.12.11.22.21.3.31.06.07.1.13.14.19.03.06.05.14.06.26.02.13.01.27,0,.41Z" fill="#fff"/></g></svg>